<?xml version="1.0" encoding="UTF-8" standalone="no"?>
<svg
   xmlns:svg="http://www.w3.org/2000/svg"
   xmlns="http://www.w3.org/2000/svg"
   width="50"
   height="50"
   viewBox="0 0 50 50"
   id="svg3493"
   version="1.1">

  <g
     id="layer1"
     transform="translate(0,-1002.3622)">
    <g
       transform="matrix(0.09668508,0,0,0.09668508,-10.635358,977.54817)"
       id="g4341"
       style="fill:#bffff7;fill-opacity:1">
      <path
         id="path4290"
         d="m 374.43257,389.54503 c -32.5316,1.2744 -65.57822,17.5371 -81.78832,46.5656 -13.30903,22.4481 -15.115,49.1386 -14.48553,74.627 0,31.6529 0,63.3057 0,94.9587 37.19695,-0.1604 74.40626,0.3356 111.59477,-0.2757 34.71673,-1.4374 70.97388,-17.0901 88.91941,-48.0783 15.43718,-26.9203 17.33473,-59.9172 11.26663,-89.8342 -5.57661,-27.2918 -24.3384,-50.66 -48.60414,-63.8808 -20.15771,-11.5734 -43.87336,-15.746 -66.90282,-14.0824 z"
         style="fill:#bffff7;fill-opacity:1" />
      <path
         id="path4294"
         d="M 368.58156,256.64792 A 258.57118,258.57118 0 0 0 110,515.22953 258.57118,258.57118 0 0 0 217.84249,724.69273 c 1.96949,1.2526 3.91746,2.4172 5.56534,2.5247 2.13543,0.1397 4.00734,-0.619 5.65625,-2.0908 1.64891,-1.4712 3.06981,-3.6629 4.29269,-6.3934 1.22289,-2.7305 2.25361,-5.9978 3.11093,-9.6359 1.71474,-7.2757 2.75813,-16.0123 3.37358,-24.8063 0.60749,-8.6813 0.78306,-17.3812 0.78782,-24.8172 l 0,-162.1626 c 0,-11.6048 0.9158,-22.589 2.7574,-32.9577 1.84165,-10.3687 4.59916,-20.1185 8.28241,-29.2509 3.6833,-9.1325 8.29238,-17.6477 13.81738,-25.544 5.5249,-7.8964 11.97573,-15.177 19.34233,-21.8372 6.05471,-5.4492 12.42979,-10.2862 19.14039,-14.5245 6.7106,-4.2383 13.74338,-7.871 21.10993,-10.8983 7.36659,-3.0274 15.06711,-5.4459 23.0896,-7.2623 8.02243,-1.8163 16.37067,-3.0306 25.0491,-3.6361 9.99022,-0.6052 19.67419,-0.3827 29.05899,0.6767 9.38479,1.0596 18.47172,2.9519 27.25099,5.6765 8.77938,2.7245 17.24899,6.2865 25.42285,10.6762 8.17386,4.3896 16.04648,9.6111 23.61487,15.6658 8.57743,6.8619 16.09084,14.3652 22.52395,22.5138 6.4331,8.1487 11.79111,16.9371 16.07993,26.3723 4.28872,9.4352 7.50157,19.5088 9.64591,30.2306 2.14438,10.7219 3.22205,22.0907 3.22205,34.0991 0,12.8158 -1.01701,24.8271 -3.06045,36.0283 -2.04344,11.2012 -5.11454,21.5935 -9.20147,31.1801 -4.08687,9.5866 -9.19201,18.3598 -15.32237,26.3319 -6.13042,7.972 -13.28959,15.1363 -21.46345,21.4937 -6.66018,5.2474 -13.75864,9.8516 -21.30189,13.7871 -7.5431,3.9357 -15.53218,7.2041 -23.95825,9.828 -8.42617,2.6235 -17.28539,4.5969 -26.59448,5.9084 -9.30909,1.312 -19.06887,1.9698 -29.26098,1.9698 l -101.7115,0 0,45.9368 c 0.43233,11.0042 1.2867,22.5784 3.97957,33.5232 1.47954,6.0134 3.42002,11.8152 5.97946,17.1811 2.5595,5.3658 5.7347,10.2927 9.65604,14.5648 3.92139,4.2721 8.59559,7.8936 14.16082,10.6257 5.27398,2.5888 11.49707,4.2245 18.49391,5.0401 a 258.57118,258.57118 0 0 0 38.14942,3.0806 258.57118,258.57118 0 0 0 258.5613,-258.5613 258.57118,258.57118 0 0 0 -258.5613,-258.58161 z"
         style="fill:#a4dee6;fill-opacity:1" />
    </g>
  </g>
</svg>
